<svg xmlns="http://www.w3.org/2000/svg" xmlns:xlink="http://www.w3.org/1999/xlink" width="512" zoomAndPan="magnify" viewBox="0 0 384 383.999986" height="512" preserveAspectRatio="xMidYMid meet" version="1.0"><defs><clipPath id="c95aef2dcd"><path d="M 45 141 L 182 141 L 182 315 L 45 315 Z M 45 141 " clip-rule="nonzero"/></clipPath><clipPath id="59533081d2"><path d="M 138.875 145.425781 C 134.210938 140.417969 126.78125 140.761719 123.671875 147.15625 L 46.457031 301.414062 C 43.347656 307.632812 47.839844 314.714844 54.75 314.714844 L 162.195312 314.714844 C 165.648438 314.714844 168.757812 312.988281 170.488281 309.53125 C 193.632812 261.683594 179.640625 188.785156 138.875 145.425781 Z M 138.875 145.425781 " clip-rule="nonzero"/></clipPath><linearGradient x1="16.398268" gradientTransform="matrix(12, 0, 0, 12, 0.0000072, 0)" y1="11.852866" x2="6.977706" gradientUnits="userSpaceOnUse" y2="28.169264" id="c70285a6e0"><stop stop-opacity="1" stop-color="rgb(0%, 32.199097%, 79.998779%)" offset="0"/><stop stop-opacity="1" stop-color="rgb(0%, 32.199097%, 79.998779%)" offset="0.125"/><stop stop-opacity="1" stop-color="rgb(0.0335693%, 32.243347%, 80.044556%)" offset="0.140625"/><stop stop-opacity="1" stop-color="rgb(0.154114%, 32.402039%, 80.207825%)" offset="0.148438"/><stop stop-opacity="1" stop-color="rgb(0.32959%, 32.632446%, 80.44281%)" offset="0.15625"/><stop stop-opacity="1" stop-color="rgb(0.50354%, 32.862854%, 80.677795%)" offset="0.164062"/><stop stop-opacity="1" stop-color="rgb(0.679016%, 33.093262%, 80.911255%)" offset="0.171875"/><stop stop-opacity="1" stop-color="rgb(0.854492%, 33.323669%, 81.14624%)" offset="0.179687"/><stop stop-opacity="1" stop-color="rgb(1.028442%, 33.554077%, 81.381226%)" offset="0.1875"/><stop stop-opacity="1" stop-color="rgb(1.203918%, 33.782959%, 81.616211%)" offset="0.195312"/><stop stop-opacity="1" stop-color="rgb(1.377869%, 34.013367%, 81.851196%)" offset="0.203125"/><stop stop-opacity="1" stop-color="rgb(1.553345%, 34.243774%, 82.086182%)" offset="0.210937"/><stop stop-opacity="1" stop-color="rgb(1.728821%, 34.474182%, 82.321167%)" offset="0.21875"/><stop stop-opacity="1" stop-color="rgb(1.902771%, 34.70459%, 82.556152%)" offset="0.226562"/><stop stop-opacity="1" stop-color="rgb(2.078247%, 34.934998%, 82.791138%)" offset="0.234375"/><stop stop-opacity="1" stop-color="rgb(2.253723%, 35.163879%, 83.026123%)" offset="0.242188"/><stop stop-opacity="1" stop-color="rgb(2.427673%, 35.394287%, 83.261108%)" offset="0.25"/><stop stop-opacity="1" stop-color="rgb(2.603149%, 35.624695%, 83.494568%)" offset="0.257812"/><stop stop-opacity="1" stop-color="rgb(2.778625%, 35.855103%, 83.729553%)" offset="0.265625"/><stop stop-opacity="1" stop-color="rgb(2.952576%, 36.08551%, 83.964539%)" offset="0.273438"/><stop stop-opacity="1" stop-color="rgb(3.128052%, 36.314392%, 84.199524%)" offset="0.28125"/><stop stop-opacity="1" stop-color="rgb(3.303528%, 36.5448%, 84.434509%)" offset="0.289062"/><stop stop-opacity="1" stop-color="rgb(3.477478%, 36.775208%, 84.669495%)" offset="0.296875"/><stop stop-opacity="1" stop-color="rgb(3.652954%, 37.005615%, 84.90448%)" offset="0.304688"/><stop stop-opacity="1" stop-color="rgb(3.82843%, 37.236023%, 85.139465%)" offset="0.3125"/><stop stop-opacity="1" stop-color="rgb(4.00238%, 37.466431%, 85.374451%)" offset="0.320312"/><stop stop-opacity="1" stop-color="rgb(4.177856%, 37.695312%, 85.609436%)" offset="0.328125"/><stop stop-opacity="1" stop-color="rgb(4.353333%, 37.92572%, 85.842896%)" offset="0.332367"/><stop stop-opacity="1" stop-color="rgb(4.440308%, 38.041687%, 85.960388%)" offset="0.335938"/><stop stop-opacity="1" stop-color="rgb(4.527283%, 38.156128%, 86.077881%)" offset="0.34375"/><stop stop-opacity="1" stop-color="rgb(4.702759%, 38.386536%, 86.312866%)" offset="0.351562"/><stop stop-opacity="1" stop-color="rgb(4.878235%, 38.616943%, 86.547852%)" offset="0.359375"/><stop stop-opacity="1" stop-color="rgb(5.052185%, 38.847351%, 86.782837%)" offset="0.367187"/><stop stop-opacity="1" stop-color="rgb(5.227661%, 39.076233%, 87.017822%)" offset="0.375"/><stop stop-opacity="1" stop-color="rgb(5.403137%, 39.306641%, 87.252808%)" offset="0.382813"/><stop stop-opacity="1" stop-color="rgb(5.577087%, 39.537048%, 87.487793%)" offset="0.390625"/><stop stop-opacity="1" stop-color="rgb(5.752563%, 39.767456%, 87.722778%)" offset="0.398438"/><stop stop-opacity="1" stop-color="rgb(5.92804%, 39.997864%, 87.957764%)" offset="0.40625"/><stop stop-opacity="1" stop-color="rgb(6.10199%, 40.226746%, 88.191223%)" offset="0.414062"/><stop stop-opacity="1" stop-color="rgb(6.277466%, 40.457153%, 88.426208%)" offset="0.421875"/><stop stop-opacity="1" stop-color="rgb(6.452942%, 40.687561%, 88.661194%)" offset="0.429688"/><stop stop-opacity="1" stop-color="rgb(6.626892%, 40.917969%, 88.896179%)" offset="0.4375"/><stop stop-opacity="1" stop-color="rgb(6.802368%, 41.148376%, 89.131165%)" offset="0.445312"/><stop stop-opacity="1" stop-color="rgb(6.976318%, 41.378784%, 89.36615%)" offset="0.453125"/><stop stop-opacity="1" stop-color="rgb(7.151794%, 41.607666%, 89.601135%)" offset="0.460938"/><stop stop-opacity="1" stop-color="rgb(7.327271%, 41.838074%, 89.836121%)" offset="0.46875"/><stop stop-opacity="1" stop-color="rgb(7.501221%, 42.068481%, 90.071106%)" offset="0.476562"/><stop stop-opacity="1" stop-color="rgb(7.676697%, 42.298889%, 90.306091%)" offset="0.484375"/><stop stop-opacity="1" stop-color="rgb(7.852173%, 42.529297%, 90.539551%)" offset="0.492188"/><stop stop-opacity="1" stop-color="rgb(8.026123%, 42.759705%, 90.774536%)" offset="0.5"/><stop stop-opacity="1" stop-color="rgb(8.201599%, 42.988586%, 91.009521%)" offset="0.507812"/><stop stop-opacity="1" stop-color="rgb(8.377075%, 43.218994%, 91.244507%)" offset="0.515625"/><stop stop-opacity="1" stop-color="rgb(8.551025%, 43.449402%, 91.479492%)" offset="0.523438"/><stop stop-opacity="1" stop-color="rgb(8.726501%, 43.67981%, 91.714478%)" offset="0.53125"/><stop stop-opacity="1" stop-color="rgb(8.901978%, 43.910217%, 91.949463%)" offset="0.539062"/><stop stop-opacity="1" stop-color="rgb(9.075928%, 44.139099%, 92.184448%)" offset="0.546875"/><stop stop-opacity="1" stop-color="rgb(9.251404%, 44.369507%, 92.419434%)" offset="0.554688"/><stop stop-opacity="1" stop-color="rgb(9.42688%, 44.599915%, 92.654419%)" offset="0.5625"/><stop stop-opacity="1" stop-color="rgb(9.60083%, 44.830322%, 92.887878%)" offset="0.570312"/><stop stop-opacity="1" stop-color="rgb(9.776306%, 45.06073%, 93.122864%)" offset="0.578125"/><stop stop-opacity="1" stop-color="rgb(9.951782%, 45.291138%, 93.357849%)" offset="0.585938"/><stop stop-opacity="1" stop-color="rgb(10.125732%, 45.52002%, 93.592834%)" offset="0.59375"/><stop stop-opacity="1" stop-color="rgb(10.301208%, 45.750427%, 93.82782%)" offset="0.601562"/><stop stop-opacity="1" stop-color="rgb(10.476685%, 45.980835%, 94.062805%)" offset="0.609375"/><stop stop-opacity="1" stop-color="rgb(10.650635%, 46.211243%, 94.297791%)" offset="0.617188"/><stop stop-opacity="1" stop-color="rgb(10.826111%, 46.44165%, 94.532776%)" offset="0.625"/><stop stop-opacity="1" stop-color="rgb(11.001587%, 46.672058%, 94.767761%)" offset="0.632812"/><stop stop-opacity="1" stop-color="rgb(11.175537%, 46.90094%, 95.002747%)" offset="0.640625"/><stop stop-opacity="1" stop-color="rgb(11.351013%, 47.131348%, 95.236206%)" offset="0.648438"/><stop stop-opacity="1" stop-color="rgb(11.526489%, 47.361755%, 95.471191%)" offset="0.65625"/><stop stop-opacity="1" stop-color="rgb(11.700439%, 47.592163%, 95.706177%)" offset="0.664062"/><stop stop-opacity="1" stop-color="rgb(11.875916%, 47.822571%, 95.941162%)" offset="0.667633"/><stop stop-opacity="1" stop-color="rgb(11.964417%, 47.937012%, 96.058655%)" offset="0.671875"/><stop stop-opacity="1" stop-color="rgb(12.051392%, 48.051453%, 96.176147%)" offset="0.679687"/><stop stop-opacity="1" stop-color="rgb(12.225342%, 48.28186%, 96.411133%)" offset="0.6875"/><stop stop-opacity="1" stop-color="rgb(12.400818%, 48.512268%, 96.646118%)" offset="0.695312"/><stop stop-opacity="1" stop-color="rgb(12.574768%, 48.742676%, 96.881104%)" offset="0.703125"/><stop stop-opacity="1" stop-color="rgb(12.750244%, 48.973083%, 97.116089%)" offset="0.710937"/><stop stop-opacity="1" stop-color="rgb(12.92572%, 49.203491%, 97.351074%)" offset="0.71875"/><stop stop-opacity="1" stop-color="rgb(13.09967%, 49.432373%, 97.584534%)" offset="0.726562"/><stop stop-opacity="1" stop-color="rgb(13.275146%, 49.662781%, 97.819519%)" offset="0.734375"/><stop stop-opacity="1" stop-color="rgb(13.450623%, 49.893188%, 98.054504%)" offset="0.742187"/><stop stop-opacity="1" stop-color="rgb(13.624573%, 50.123596%, 98.28949%)" offset="0.75"/><stop stop-opacity="1" stop-color="rgb(13.800049%, 50.354004%, 98.524475%)" offset="0.757813"/><stop stop-opacity="1" stop-color="rgb(13.975525%, 50.584412%, 98.75946%)" offset="0.765625"/><stop stop-opacity="1" stop-color="rgb(14.149475%, 50.813293%, 98.994446%)" offset="0.773438"/><stop stop-opacity="1" stop-color="rgb(14.324951%, 51.043701%, 99.229431%)" offset="0.78125"/><stop stop-opacity="1" stop-color="rgb(14.500427%, 51.274109%, 99.464417%)" offset="0.789063"/><stop stop-opacity="1" stop-color="rgb(14.674377%, 51.504517%, 99.699402%)" offset="0.796875"/><stop stop-opacity="1" stop-color="rgb(14.830017%, 51.708984%, 99.908447%)" offset="0.8125"/><stop stop-opacity="1" stop-color="rgb(14.898682%, 51.799011%, 100%)" offset="0.875"/><stop stop-opacity="1" stop-color="rgb(14.898682%, 51.799011%, 100%)" offset="1"/></linearGradient></defs><g clip-path="url(#c95aef2dcd)"><g clip-path="url(#59533081d2)"><path fill="url(#c70285a6e0)" d="M 43.347656 140.417969 L 43.347656 314.714844 L 193.632812 314.714844 L 193.632812 140.417969 Z M 43.347656 140.417969 " fill-rule="nonzero"/></g></g><path fill="#2681ff" d="M 195.53125 4.988281 C 152.347656 73.394531 155.285156 149.226562 183.613281 206.058594 C 211.945312 262.890625 233.882812 306.59375 235.4375 309.707031 C 236.992188 312.816406 240.273438 314.886719 243.726562 314.886719 L 351.175781 314.886719 C 358.082031 314.886719 362.574219 307.632812 359.464844 301.585938 C 359.464844 301.585938 214.878906 12.242188 211.253906 4.988281 C 207.972656 -1.574219 199.679688 -1.75 195.53125 4.988281 Z M 195.53125 4.988281 " fill-opacity="1" fill-rule="nonzero"/><path fill="#0052cc" d="M 214.019531 371.199219 C 214.019531 363.773438 210.042969 360.316406 199.160156 358.074219 C 193.113281 356.691406 191.5625 355.308594 191.5625 353.410156 C 191.5625 350.992188 193.804688 349.953125 197.777344 349.953125 C 202.617188 349.953125 207.453125 351.507812 211.945312 353.410156 L 211.945312 343.734375 C 208.660156 342.179688 203.824219 340.796875 198.125 340.796875 C 187.242188 340.796875 181.542969 345.460938 181.542969 353.234375 C 181.542969 359.453125 184.476562 364.292969 195.707031 366.535156 C 202.445312 367.917969 203.824219 368.957031 203.824219 371.199219 C 203.824219 373.445312 202.445312 374.828125 197.605469 374.828125 C 192.078125 374.828125 185.515625 372.925781 181.371094 370.335938 L 181.371094 380.527344 C 184.824219 382.257812 189.316406 383.984375 197.605469 383.984375 C 209.351562 384.328125 214.019531 378.972656 214.019531 371.199219 Z M 214.019531 371.199219 " fill-opacity="1" fill-rule="nonzero"/><path fill="#0052cc" d="M 332.863281 341.660156 L 332.863281 383.636719 L 341.84375 383.636719 L 341.84375 351.507812 L 345.644531 360.144531 L 358.257812 383.636719 L 369.484375 383.636719 L 369.484375 341.660156 L 360.5 341.660156 L 360.5 368.78125 L 357.21875 360.835938 L 347.027344 341.660156 Z M 332.863281 341.660156 " fill-opacity="1" fill-rule="nonzero"/><path fill="#0052cc" d="M 275.859375 341.660156 L 266.011719 341.660156 L 266.011719 383.636719 L 275.859375 383.636719 Z M 275.859375 341.660156 " fill-opacity="1" fill-rule="nonzero"/><path fill="#0052cc" d="M 254.785156 371.199219 C 254.785156 363.773438 250.8125 360.316406 239.929688 358.074219 C 233.882812 356.691406 232.328125 355.308594 232.328125 353.410156 C 232.328125 350.992188 234.574219 349.953125 238.546875 349.953125 C 243.382812 349.953125 248.21875 351.507812 252.710938 353.410156 L 252.710938 343.734375 C 249.429688 342.179688 244.59375 340.796875 238.890625 340.796875 C 228.007812 340.796875 222.308594 345.460938 222.308594 353.234375 C 222.308594 359.453125 225.246094 364.292969 236.472656 366.535156 C 243.210938 367.917969 244.59375 368.957031 244.59375 371.199219 C 244.59375 373.445312 243.210938 374.828125 238.371094 374.828125 C 232.84375 374.828125 226.28125 372.925781 222.136719 370.335938 L 222.136719 380.527344 C 225.589844 382.257812 230.082031 383.984375 238.371094 383.984375 C 250.121094 384.328125 254.785156 378.972656 254.785156 371.199219 Z M 254.785156 371.199219 " fill-opacity="1" fill-rule="nonzero"/><path fill="#0052cc" d="M 105.535156 341.660156 L 105.535156 383.636719 L 125.746094 383.636719 L 128.855469 374.484375 L 115.382812 374.484375 L 115.382812 341.660156 Z M 105.535156 341.660156 " fill-opacity="1" fill-rule="nonzero"/><path fill="#0052cc" d="M 65.804688 341.660156 L 65.804688 350.640625 L 76.6875 350.640625 L 76.6875 383.636719 L 86.53125 383.636719 L 86.53125 350.640625 L 98.277344 350.640625 L 98.277344 341.660156 Z M 65.804688 341.660156 " fill-opacity="1" fill-rule="nonzero"/><path fill="#0052cc" d="M 51.640625 341.660156 L 38.683594 341.660156 L 24 383.636719 L 35.226562 383.636719 L 37.300781 376.554688 C 39.71875 377.242188 42.484375 377.761719 45.074219 377.761719 C 47.839844 377.761719 50.429688 377.417969 52.847656 376.554688 L 54.921875 383.636719 L 66.148438 383.636719 Z M 45.074219 368.953125 C 43.175781 368.953125 41.445312 368.605469 39.71875 368.261719 L 45.074219 349.949219 L 50.429688 368.261719 C 48.703125 368.605469 46.976562 368.953125 45.074219 368.953125 Z M 45.074219 368.953125 " fill-opacity="1" fill-rule="nonzero"/><path fill="#0052cc" d="M 160.464844 341.660156 L 147.511719 341.660156 L 132.828125 383.640625 L 144.054688 383.640625 L 146.128906 376.554688 C 148.546875 377.246094 151.3125 377.765625 153.902344 377.765625 C 156.664062 377.765625 159.257812 377.417969 161.675781 376.554688 L 163.75 383.640625 L 174.976562 383.640625 Z M 153.902344 368.957031 C 152 368.957031 150.273438 368.609375 148.546875 368.265625 L 153.902344 349.953125 L 159.257812 368.265625 C 157.53125 368.609375 155.800781 368.957031 153.902344 368.957031 Z M 153.902344 368.957031 " fill-opacity="1" fill-rule="nonzero"/><path fill="#0052cc" d="M 311.097656 341.660156 L 298.140625 341.660156 L 283.457031 383.640625 L 294.6875 383.640625 L 296.757812 376.554688 C 299.179688 377.246094 301.941406 377.765625 304.53125 377.765625 C 307.296875 377.765625 309.886719 377.417969 312.304688 376.554688 L 314.378906 383.640625 L 325.605469 383.640625 Z M 304.707031 368.957031 C 302.804688 368.957031 301.078125 368.609375 299.351562 368.265625 L 304.707031 349.953125 L 310.0625 368.265625 C 308.332031 368.609375 306.605469 368.957031 304.707031 368.957031 Z M 304.707031 368.957031 " fill-opacity="1" fill-rule="nonzero"/></svg>