<svg xmlns="http://www.w3.org/2000/svg" xmlns:xlink="http://www.w3.org/1999/xlink" width="500" zoomAndPan="magnify" viewBox="0 0 375 374.999991" height="500" preserveAspectRatio="xMidYMid meet" version="1.0"><defs><g/></defs><g fill="#5cbc62" fill-opacity="1"><g transform="translate(0.843011, 222.932074)"><g><path d="M 25.605469 -36.230469 L 46.859375 -51.085938 L 38.527344 -62.921875 L 5.917969 -40.21875 L 5.917969 -32.367188 L 38.527344 -9.542969 L 46.859375 -21.378906 Z M 25.605469 -36.230469 "/></g></g></g><g fill="#5cbc62" fill-opacity="1"><g transform="translate(83.447338, 222.932074)"><g><path d="M -0.484375 22.953125 C -2.410156 22.953125 -4.097656 22.8125 -5.546875 22.53125 C -7.003906 22.25 -8.296875 21.863281 -9.421875 21.375 L -9.421875 12.203125 C -8.128906 12.597656 -6.757812 12.894531 -5.3125 13.09375 C -3.863281 13.300781 -2.332031 13.40625 -0.71875 13.40625 C 1.289062 13.40625 3.203125 13 5.015625 12.1875 C 6.828125 11.382812 8.296875 10 9.421875 8.03125 C 10.546875 6.0625 11.109375 3.222656 11.109375 -0.484375 L 11.109375 -86.234375 L 21.984375 -86.234375 L 21.984375 -1.328125 C 21.984375 6.960938 19.925781 13.082031 15.8125 17.03125 C 11.707031 20.976562 6.273438 22.953125 -0.484375 22.953125 Z M -0.484375 22.953125 "/></g></g></g><g fill="#5cbc62" fill-opacity="1"><g transform="translate(146.971768, 222.932074)"><g><path d="M 19.566406 7.730469 L 5.554688 3.984375 L 28.140625 -80.316406 L 42.148438 -76.570312 Z M 19.566406 7.730469 "/></g></g></g><g fill="#5cbc62" fill-opacity="1"><g transform="translate(225.228785, 222.932074)"><g><path d="M 60.625 -23.0625 C 60.625 -15.414062 57.847656 -9.457031 52.296875 -5.1875 C 46.742188 -0.925781 39.253906 1.203125 29.828125 1.203125 C 25.003906 1.203125 20.535156 0.835938 16.421875 0.109375 C 12.316406 -0.609375 8.894531 -1.613281 6.15625 -2.90625 L 6.15625 -13.28125 C 9.0625 -12 12.664062 -10.832031 16.96875 -9.78125 C 21.28125 -8.738281 25.726562 -8.21875 30.3125 -8.21875 C 36.675781 -8.21875 41.507812 -9.460938 44.8125 -11.953125 C 48.113281 -14.453125 49.765625 -17.835938 49.765625 -22.109375 C 49.765625 -24.921875 49.160156 -27.289062 47.953125 -29.21875 C 46.742188 -31.15625 44.648438 -32.925781 41.671875 -34.53125 C 38.691406 -36.144531 34.625 -37.921875 29.46875 -39.859375 C 22.0625 -42.515625 16.503906 -45.773438 12.796875 -49.640625 C 9.097656 -53.503906 7.25 -58.78125 7.25 -65.46875 C 7.25 -69.976562 8.414062 -73.878906 10.75 -77.171875 C 13.082031 -80.472656 16.300781 -83.007812 20.40625 -84.78125 C 24.519531 -86.5625 29.3125 -87.453125 34.78125 -87.453125 C 39.457031 -87.453125 43.765625 -87.003906 47.703125 -86.109375 C 51.648438 -85.222656 55.273438 -84.054688 58.578125 -82.609375 L 55.203125 -73.3125 C 52.222656 -74.601562 48.957031 -75.691406 45.40625 -76.578125 C 41.863281 -77.460938 38.242188 -77.90625 34.546875 -77.90625 C 29.148438 -77.90625 25.082031 -76.753906 22.34375 -74.453125 C 19.601562 -72.160156 18.234375 -69.125 18.234375 -65.34375 C 18.234375 -62.445312 18.835938 -60.03125 20.046875 -58.09375 C 21.253906 -56.164062 23.226562 -54.414062 25.96875 -52.84375 C 28.707031 -51.269531 32.410156 -49.640625 37.078125 -47.953125 C 42.148438 -46.097656 46.4375 -44.101562 49.9375 -41.96875 C 53.445312 -39.832031 56.101562 -37.273438 57.90625 -34.296875 C 59.71875 -31.316406 60.625 -27.570312 60.625 -23.0625 Z M 60.625 -23.0625 "/></g></g></g><g fill="#5cbc62" fill-opacity="1"><g transform="translate(322.082631, 222.932074)"><g><path d="M 26.449219 -36.230469 L 5.191406 -21.378906 L 13.527344 -9.542969 L 46.136719 -32.367188 L 46.136719 -40.21875 L 13.527344 -62.921875 L 5.191406 -51.085938 Z M 26.449219 -36.230469 "/></g></g></g></svg>