<svg xmlns="http://www.w3.org/2000/svg" xmlns:xlink="http://www.w3.org/1999/xlink" width="512" zoomAndPan="magnify" viewBox="0 0 384 383.999986" height="512" preserveAspectRatio="xMidYMid meet" version="1.0"><path fill="#f04939" d="M 68.546875 60 C 68.546875 108.542969 98.695312 137.671875 158.992188 153 L 222.863281 167.816406 C 280.09375 181.101562 314.839844 213.804688 314.839844 266.945312 C 315.351562 289.941406 307.683594 312.425781 293.886719 330.820312 C 293.886719 277.679688 266.296875 249.0625 200.378906 231.691406 L 137.53125 217.382812 C 86.941406 206.140625 48.109375 179.058594 48.109375 121.320312 C 48.109375 99.347656 55.261719 77.375 68.546875 60 " fill-opacity="1" fill-rule="nonzero"/><path fill="#f37368" d="M 254.542969 253.660156 C 281.625 271.035156 293.886719 295.5625 293.886719 330.820312 C 270.894531 359.945312 231.550781 375.785156 185.050781 375.785156 C 106.871094 375.785156 51.175781 336.949219 39.421875 270.011719 L 114.535156 270.011719 C 124.246094 300.671875 149.792969 314.980469 184.539062 314.980469 C 225.929688 315.488281 254.03125 293.007812 254.542969 253.660156 M 68.546875 59.492188 C 90.519531 30.875 128.332031 13.503906 174.320312 13.503906 C 254.542969 13.503906 300.53125 55.914062 312.285156 115.1875 L 239.726562 115.1875 C 231.550781 91.683594 211.621094 73.285156 175.34375 73.285156 C 135.996094 73.796875 109.425781 96.28125 107.894531 132.050781 C 81.5625 117.527344 67.527344 89.128906 68.546875 59.492188 Z M 68.546875 59.492188 " fill-opacity="1" fill-rule="nonzero"/></svg>