<svg xmlns="http://www.w3.org/2000/svg" xmlns:xlink="http://www.w3.org/1999/xlink" width="500" zoomAndPan="magnify" viewBox="0 0 375 374.999991" height="500" preserveAspectRatio="xMidYMid meet" version="1.0"><path fill="#000000" d="M 79.59375 15.082031 C 67.175781 15.082031 56.953125 25.300781 56.953125 37.722656 L 56.953125 309.566406 C 56.953125 321.992188 67.179688 332.203125 79.59375 332.203125 L 96.441406 332.203125 L 96.441406 335.363281 C 96.441406 341.566406 101.46875 346.414062 107.671875 346.414062 L 312.488281 346.414062 C 318.691406 346.414062 323.542969 341.566406 323.542969 335.363281 L 323.542969 260.773438 C 323.542969 254.570312 318.6875 249.542969 312.488281 249.542969 L 297.746094 249.542969 L 297.746094 99.496094 L 297.746094 99.5 C 297.710938 99.203125 297.652344 98.90625 297.574219 98.621094 L 297.574219 97.921875 C 297.515625 97.863281 297.457031 97.804688 297.398438 97.746094 C 297.402344 97.628906 297.402344 97.511719 297.398438 97.398438 C 297.34375 97.335938 297.285156 97.28125 297.226562 97.222656 L 297.226562 97.050781 C 297.171875 96.929688 297.113281 96.816406 297.046875 96.703125 C 296.992188 96.644531 296.933594 96.585938 296.875 96.527344 L 296.875 96.355469 C 296.761719 96.230469 296.644531 96.113281 296.519531 96.003906 C 296.523438 95.945312 296.523438 95.886719 296.519531 95.832031 C 296.410156 95.710938 296.292969 95.59375 296.175781 95.484375 C 296.117188 95.425781 296.058594 95.367188 296 95.308594 L 214.039062 16.6875 L 214.042969 16.6875 C 213.632812 16.261719 213.15625 15.90625 212.636719 15.632812 C 212.464844 15.566406 212.289062 15.507812 212.105469 15.460938 C 211.933594 15.394531 211.757812 15.335938 211.582031 15.285156 C 211.410156 15.214844 211.234375 15.15625 211.054688 15.109375 C 210.757812 15.085938 210.464844 15.085938 210.175781 15.109375 L 79.605469 15.109375 Z M 79.59375 26.3125 L 204.550781 26.3125 L 204.550781 82.472656 C 204.550781 94.894531 214.773438 104.9375 227.1875 104.9375 L 286.503906 104.9375 L 286.503906 249.546875 L 107.675781 249.546875 C 101.46875 249.546875 96.445312 254.574219 96.445312 260.777344 L 96.445312 320.972656 L 79.59375 320.972656 C 73.253906 320.972656 68.1875 315.917969 68.1875 309.566406 L 68.1875 37.722656 C 68.1875 31.378906 73.253906 26.3125 79.59375 26.3125 Z M 215.78125 33.859375 L 277.90625 93.703125 L 227.1875 93.703125 C 220.847656 93.703125 215.78125 88.824219 215.78125 82.472656 Z M 187.878906 119.675781 L 187.878906 119.679688 C 185.648438 120.042969 183.851562 121.699219 183.3125 123.890625 L 162.078125 202.867188 L 162.082031 202.867188 C 161.664062 204.320312 161.839844 205.875 162.578125 207.191406 C 163.316406 208.511719 164.554688 209.476562 166.007812 209.875 C 167.464844 210.273438 169.019531 210.074219 170.328125 209.320312 C 171.632812 208.5625 172.582031 207.3125 172.960938 205.851562 L 194.195312 126.878906 C 194.773438 125.011719 194.339844 122.980469 193.054688 121.511719 C 191.765625 120.042969 189.804688 119.347656 187.878906 119.679688 Z M 146.636719 134.769531 L 146.636719 134.773438 C 145.726562 134.976562 144.882812 135.398438 144.179688 136.003906 L 109.957031 161.800781 C 108.535156 162.835938 107.679688 164.476562 107.644531 166.230469 C 107.609375 167.992188 108.402344 169.664062 109.785156 170.753906 L 144.007812 197.253906 C 145.140625 198.414062 146.71875 199.03125 148.335938 198.941406 C 149.957031 198.851562 151.457031 198.070312 152.457031 196.789062 C 153.457031 195.507812 153.851562 193.863281 153.542969 192.265625 C 153.238281 190.671875 152.253906 189.292969 150.851562 188.480469 L 122.417969 166.367188 L 151.023438 144.953125 L 151.027344 144.953125 C 153.125 143.480469 153.960938 140.765625 153.050781 138.363281 C 152.136719 135.960938 149.714844 134.484375 147.164062 134.773438 C 146.988281 134.765625 146.8125 134.765625 146.632812 134.773438 Z M 207.882812 135.824219 L 207.882812 135.828125 C 205.5625 136.074219 203.628906 137.742188 203.046875 140.003906 C 202.457031 142.269531 203.339844 144.664062 205.25 146.007812 L 233.683594 167.414062 L 205.429688 189.527344 L 205.429688 189.53125 C 204.027344 190.34375 203.042969 191.726562 202.734375 193.320312 C 202.421875 194.914062 202.820312 196.566406 203.816406 197.847656 C 204.816406 199.121094 206.320312 199.910156 207.9375 199.996094 C 209.5625 200.085938 211.140625 199.46875 212.273438 198.304688 L 246.496094 171.800781 L 246.496094 171.804688 C 247.878906 170.71875 248.664062 169.042969 248.632812 167.285156 C 248.597656 165.53125 247.742188 163.890625 246.320312 162.855469 L 212.097656 137.054688 C 211.058594 136.21875 209.75 135.785156 208.414062 135.828125 C 208.238281 135.820312 208.058594 135.820312 207.882812 135.828125 Z M 141.371094 276.746094 L 151.722656 276.746094 L 160.324219 290.609375 L 168.746094 276.746094 L 178.925781 276.746094 L 165.410156 297.628906 L 180.152344 319.921875 L 169.621094 319.921875 L 160.144531 305.003906 L 150.492188 319.921875 L 140.140625 319.921875 L 154.878906 297.28125 L 141.363281 276.746094 Z M 197.179688 276.746094 L 206.308594 276.746094 L 223.683594 319.921875 L 214.207031 319.921875 L 210.34375 310.089844 L 193.148438 310.089844 L 189.636719 319.921875 L 180.335938 319.921875 L 197.1875 276.746094 Z M 228.246094 276.746094 L 241.234375 276.746094 L 249.128906 306.226562 L 256.851562 276.746094 L 269.835938 276.746094 L 269.835938 319.921875 L 261.765625 319.921875 L 261.765625 285.875 L 253.164062 319.921875 L 244.914062 319.921875 L 236.316406 285.875 L 236.316406 319.921875 L 228.242188 319.921875 L 228.242188 276.746094 Z M 278.789062 277.09375 L 287.5625 277.09375 L 287.5625 312.546875 L 309.324219 312.546875 L 309.324219 319.921875 L 278.789062 319.921875 Z M 201.746094 286.746094 L 195.78125 302.71875 L 207.539062 302.71875 L 201.75 286.746094 Z M 127.6875 311.671875 L 135.9375 311.671875 L 135.9375 319.921875 L 127.6875 319.921875 Z M 127.6875 311.671875 " fill-opacity="1" fill-rule="nonzero"/></svg>